# AST/ASF file generated using VICON BodyLanguage
# -----------------------------------------------
:version 1.10
:name VICON
:units
  mass 1.0
  length 0.45
  angle deg
:documentation
   .ast/.asf automatically generated from VICON data using
   VICON BodyBuilder and BodyLanguage model FoxedUp or BRILLIANT.MOD
:root
   order TX TY TZ RX RY RZ
   axis XYZ
   position 0 0 0  
   orientation 0 0 0 
:bonedata
  begin
     id 1 
     name lhipjoint
     direction 0.623415 -0.642378 0.445763 
     length 2.49859 
     axis 0 0 0  XYZ
  end
  begin
     id 2 
     name lfemur
     direction 0.34202 -0.939693 0  
     length 6.69689  
     axis 0 0 20  XYZ
    dof rx ry rz
    limits (-160.0 20.0)
           (-70.0 70.0)
           (-60.0 70.0)
  end
  begin
     id 3 
     name ltibia
     direction 0.34202 -0.939693 0   
     length 7.37574   
     axis 0 0 20   XYZ
    dof rx
    limits (-10.0 170.0)
  end
  begin
     id 4 
     name lfoot
     direction 0.084323 -0.231675 0.969132   
     length 2.09111   
     axis -90 7.62852e-016 20   XYZ
    dof rx rz
    limits (-45.0 90.0)
           (-70.0 20.0)
  end
  begin
     id 5 
     name ltoes
     direction 1.5357e-011 -4.21957e-011 1   
     length 1.04989   
     axis -90 7.62852e-016 20   XYZ
    dof rx
    limits (-90.0 20.0)
  end
  begin
     id 6 
     name rhipjoint
     direction -0.605402 -0.653903 0.45376   
     length 2.45455  
     axis 0 0 0  XYZ 
  end
  begin
     id 7 
     name rfemur
     direction -0.34202 -0.939693 0   
     length 6.64523   
     axis 0 0 -20   XYZ
    dof rx ry rz
    limits (-160.0 20.0)
           (-70.0 70.0)
           (-70.0 60.0)
  end
  begin
     id 8 
     name rtibia
     direction -0.34202 -0.939693 0   
     length 7.3339   
     axis 0 0 -20   XYZ
    dof rx
    limits (-10.0 170.0)
 end
 begin
     id 9 
     name rfoot
     direction -0.120854 -0.332043 0.93549   
     length 2.23135  
     axis -90 -7.62852e-016 -20   XYZ
    dof rx rz
    limits (-45.0 90.0)
           (-20.0 70.0)
  end
  begin
     id 10 
     name rtoes
     direction -1.53563e-011 -4.21914e-011 1   
     length 1.10614   
     axis -90 -7.62852e-016 -20   XYZ
    dof rx
    limits (-90.0 20.0)
  end
  begin
     id 11 
     name lowerback
     direction 0.0319682 0.998615 -0.0417941   
     length 2.02718   
     axis 0 0 0   XYZ
    dof rx ry rz
    limits (-20.0 45.0)
           (-30.0 30.0)
           (-30.0 30.0)
  end
  begin
     id 12 
     name upperback
     direction 7.63181e-005 0.995808 0.0914691   
     length 1.97539   
     axis 0 0 0   XYZ
    dof rx ry rz
    limits (-20.0 45.0)
           (-30.0 30.0)
           (-30.0 30.0)
  end
  begin
     id 13 
     name thorax
     direction -0.016423 0.993627 0.111514   
     length 2.00349   
     axis 0 0 0   XYZ
    dof rx ry rz
    limits (-20.0 45.0)
           (-30.0 30.0)
           (-30.0 30.0)
  end
  begin
     id 14 
     name lowerneck
     direction -0.174763 0.981668 -0.0760716   
     length 1.71436   
     axis 0 0 0   XYZ
    dof rx ry rz
    limits (-20.0 45.0)
           (-30.0 30.0)
           (-30.0 30.0)
  end
  begin
     id 15 
     name upperneck
     direction 0.345458 0.934587 -0.0848868   
     length 1.72805   
     axis 0 0 0   XYZ
    dof rx ry rz
    limits (-20.0 45.0)
           (-30.0 30.0)
           (-30.0 30.0)
  end
  begin
     id 16
     name head
     direction 0.13001 0.989848 -0.0574291  
     length 1.767  
     axis 0 0 0   XYZ
    dof rx ry rz
    limits (-20.0 45.0)
           (-30.0 30.0)
           (-30.0 30.0)
  end
  begin
     id 17 
     name lclavicle
     direction 0.952951 0.290122 0.0878234  
     length 3.54654  
     axis 0 0 0   XYZ
    dof ry rz
    limits (-20.0 10.0)
           (0.0 20.0)
  end
  begin
     id 18 
     name lhumerus
     direction 1 -4.48957e-011 -4.56525e-028   
     length 5.19807   
     axis 180 -30 -90   XYZ
    dof rx ry rz
    limits (-60.0 90.0)
           (-90.0 90.0)
           (-90.0 90.0)
  end
  begin
     id 19
     name lradius
     direction 1 -4.48979e-011 -2.0317e-027   
     length 3.0937   
     axis 180 -30 -90   XYZ
    dof rx
    limits (-10.0 170.0)
  end
  begin
     id 20
     name lwrist
     direction 1 -4.48953e-011 -3.05809e-027   
     length 1.54685   
     axis 8.48514e-016 90 90   XYZ
    dof ry
    limits (-180.0 0.0)
 end
  begin
     id 21 
     name lhand
     direction 1 -4.48952e-011 -6.11639e-027   
     length 0.672632   
     axis 3.9013e-015 90 90   XYZ
    dof rx rz
    limits (-90.0 90.0)
           (-45.0 45.0)
  end
  begin
     id 22 
     name lfingers
     direction 1 -4.48925e-011 -1.22426e-026   
     length 0.542293   
     axis 7.80276e-015 90 90   XYZ
    dof rx
    limits (0.0 90.0)
  end
  begin
     id 23
     name lthumb
     direction 0.707107 -6.3486e-011 0.707107   
     length 0.778628   
     axis -90 45 5.37419e-014   XYZ
    dof rx rz
    limits (-45.0 45.0)
           (-45.0 45.0)
  end
  begin
     id 24 
     name rclavicle
     direction -0.960732 0.273675 -0.0457849   
     length 3.52079  
     axis 0 0 0   XYZ 
    dof ry rz
    limits (-10.0 20.0)
           (-20.0 0.0)
  end
  begin
     id 25 
     name rhumerus
     direction -1 -4.48976e-011 -1.63613e-027  
     length 5.45222   
     axis 180 30 90   XYZ
    dof rx ry rz
    limits (-90.0 60.0)
           (-90.0 90.0)
           (-90.0 90.0)
  end
  begin
     id 26 
     name rradius
     direction -1 -4.48957e-011 -7.00033e-028   
     length 3.01284   
     axis 180 30 90   XYZ
    dof rx
    limits (-10.0 170.0)
  end
  begin
     id 27 
     name rwrist
     direction -1 -4.48983e-011 -3.05543e-027   
     length 1.50642   
     axis 8.48514e-016 -90 -90   XYZ
    dof ry
    limits (-180.0 0.0)
  end
  begin
     id 28
     name rhand
     direction -1 -4.48984e-011 -6.11072e-027   
     length 0.622296   
     axis 3.9013e-015 -90 -90   XYZ
    dof rx rz
    limits (-90.0 90.0)
           (-45.0 45.0)
  end
  begin
     id 29
     name rfingers
     direction -1 -4.48865e-011 -1.22637e-026   
     length 0.501711   
     axis 7.80276e-015 -90 -90   XYZ
    dof rx
    limits (0.0 90.0)
  end
  begin
     id 30
     name rthumb
     direction -0.707107 -6.34932e-011 0.707107   
     length 0.72036   
     axis -90 -45 -5.37419e-014   XYZ
    dof rx rz
    limits (-45.0 45.0)
           (-45.0 45.0)
  end
:hierarchy
  begin
    root lhipjoint rhipjoint lowerback
    lhipjoint lfemur
    lfemur ltibia
    ltibia lfoot
    lfoot ltoes
    rhipjoint rfemur
    rfemur rtibia
    rtibia rfoot
    rfoot rtoes
    lowerback upperback
    upperback thorax
    thorax lowerneck lclavicle rclavicle
    lowerneck upperneck
    upperneck head
    lclavicle lhumerus
    lhumerus lradius
    lradius lwrist
    lwrist lhand lthumb
    lhand lfingers
    rclavicle rhumerus
    rhumerus rradius
    rradius rwrist
    rwrist rhand rthumb
    rhand rfingers
  end

#!OML:ASF H:\Not Pregnant\Project 1\Capture day 1\Session 1\non-pregnant.ASF
:FULLY-SPECIFIED
:DEGREES
124
root -3.79638 15.9822 21.9058 11.6805 22.922 -7.81645
lowerback -8.54268 2.44719 10.6691
upperback -9.30094 2.86762 -0.298051
thorax -4.58625 0.869065 -6.15322
lowerneck 4.79108 -7.1948 -28.9544
upperneck 7.28126 -13.7727 36.1873
head 6.33057 -7.24533 17.9467
rclavicle -4.13969e-014 3.57812e-015
rhumerus -22.2794 18.8573 -76.5173
rradius 65.5472
rwrist -16.6755
rhand -10.7791 -31.2172
rfingers 7.12502
rthumb 15.2333 -60.6364
lclavicle -4.13969e-014 3.57812e-015
lhumerus -32.4906 -15.1834 75.6359
lradius 74.8228
lwrist 61.2234
lhand -20.3048 14.8747
lfingers 7.12502
lthumb 6.04557 44.7685
rfemur -20.1919 -12.5533 29.1681
rtibia 27.4665
rfoot -21.5086 5.24829
rtoes -19.2526
lfemur -36.3051 13.2174 -21.453
ltibia 43.1311
lfoot -15.8592 11.2747
ltoes -15.5148
125
root -3.7662 15.9761 21.941 11.6352 23.2414 -7.86855
lowerback -8.73786 2.5219 10.6176
upperback -9.30283 2.94792 -0.281661
thorax -4.46671 0.920741 -6.09386
lowerneck 4.4784 -7.0547 -28.8854
upperneck 7.46496 -13.5085 36.179
head 6.33352 -7.0782 17.9684
rclavicle -2.48481e-015 1.74931e-014
rhumerus -22.504 18.6966 -76.523
rradius 65.5003
rwrist -16.6165
rhand -10.8781 -31.0311
rfingers 7.12502
rthumb 15.1379 -60.4575
lclavicle -2.48481e-015 1.74931e-014
lhumerus -32.7122 -15.2127 75.8507
lradius 74.7926
lwrist 61.1774
lhand -20.3662 14.8675
lfingers 7.12502
lthumb 5.98631 44.7629
rfemur -19.8776 -12.2616 29.1048
rtibia 27.3535
rfoot -21.5179 4.57817
rtoes -19.7083
lfemur -36.2792 13.7916 -22.007
ltibia 43.0851
lfoot -16.0143 11.834
ltoes -14.2163
126
root -3.73436 15.9701 21.9768 11.5912 23.5632 -7.90524
lowerback -8.93212 2.59287 10.5497
upperback -9.30568 3.02421 -0.273563
thorax -4.34974 0.970777 -6.03411
lowerneck 4.21526 -6.91574 -28.7807
upperneck 7.59914 -13.2429 36.1497
head 6.30613 -6.91339 17.9666
rclavicle -2.33572e-015 2.38542e-015
rhumerus -22.7344 18.5136 -76.5421
rradius 65.4714
rwrist -16.5372
rhand -10.9322 -30.9719
rfingers 7.12502
rthumb 15.0858 -60.4022
lclavicle -2.33572e-015 2.38542e-015
lhumerus -32.9498 -15.2514 76.0516
lradius 74.7803
lwrist 61.1627
lhand -20.481 14.8785
lfingers 7.12502
lthumb 5.87542 44.777
rfemur -19.5511 -11.9219 29.0189
rtibia 27.2406
rfoot -21.5103 3.85274
rtoes -20.1883
lfemur -36.1913 14.2635 -22.5178
ltibia 42.9973
lfoot -16.2345 12.3192
ltoes -12.8741
127
root -3.70086 15.964 22.0112 11.5523 23.9054 -7.92825
lowerback -9.10252 2.64979 10.4795
upperback -9.32543 3.08631 -0.27309
thorax -4.2672 1.01109 -5.98332
lowerneck 4.00914 -6.76688 -28.6474
upperneck 7.70152 -12.966 36.1021
head 6.24927 -6.74684 17.9476
rclavicle 1.03517e-013 5.76476e-014
rhumerus -22.9828 18.3377 -76.5859
rradius 65.4619
rwrist -16.4714
rhand -10.9639 -31.0349
rfingers 7.12502
rthumb 15.0552 -60.4675
lclavicle 1.03517e-013 5.76476e-014
lhumerus -33.2044 -15.278 76.2366
lradius 74.7591
lwrist 61.1546
lhand -20.6041 14.8816
lfingers 7.12502
lthumb 5.75658 44.7834
rfemur -19.2318 -11.5703 28.9168
rtibia 27.1362
rfoot -21.4877 3.09389
rtoes -20.6924
lfemur -36.0502 14.5812 -22.97
ltibia 42.8687
lfoot -16.5116 12.7521
ltoes -11.4773
128
root -3.66631 15.9582 22.0453 11.5119 24.2166 -7.94735
lowerback -9.24659 2.71229 10.396
upperback -9.35212 3.16038 -0.276295
thorax -4.20499 1.05663 -5.92905
lowerneck 3.82065 -6.61977 -28.5092
upperneck 7.79026 -12.6941 36.0561
head 6.18732 -6.58422 17.9263
rclavicle 1.43622e-014 -3.57812e-015
rhumerus -23.246 18.1633 -76.6464
rradius 65.4666
rwrist -16.3866
rhand -10.9961 -31.1571
rfingers 7.12502
rthumb 15.0242 -60.592
lclavicle 1.43622e-014 -3.57812e-015
lhumerus -33.477 -15.3049 76.4057
lradius 74.7451
lwrist 61.1396
lhand -20.7167 14.878
lfingers 7.12502
lthumb 5.64787 44.7827
rfemur -18.917 -11.1626 28.8017
rtibia 27.0515
rfoot -21.4502 2.31083
rtoes -21.205
lfemur -35.844 14.7833 -23.3434
ltibia 42.7008
lfoot -16.8571 13.1235
ltoes -9.94235
129
root -3.63114 15.9524 22.0775 11.4695 24.4856 -7.96431
lowerback -9.35283 2.78314 10.3036
upperback -9.37754 3.25051 -0.280724
thorax -4.15976 1.1097 -5.8712
lowerneck 3.61975 -6.48146 -28.3865
upperneck 7.8718 -12.4345 36.0252
head 6.13443 -6.42761 17.9138
rclavicle -1.86858e-014 -2.38542e-015
rhumerus -23.4929 17.9965 -76.7097
rradius 65.4577
rwrist -16.3068
rhand -11.04 -31.1651
rfingers 7.12502
rthumb 14.982 -60.6031
lclavicle -1.86858e-014 -2.38542e-015
lhumerus -33.736 -15.3174 76.5571
lradius 74.73
lwrist 61.1063
lhand -20.7935 14.8713
lfingers 7.12502
lthumb 5.57374 44.778
rfemur -18.6228 -10.691 28.6756
rtibia 27
rfoot -21.3939 1.5096
rtoes -21.7066
lfemur -35.5816 14.8583 -23.6306
ltibia 42.4952
lfoot -17.2313 13.4597
ltoes -8.42744
130
root -3.59594 15.9464 22.1068 11.4376 24.7152 -7.97167
lowerback -9.41565 2.85851 10.195
upperback -9.41181 3.35337 -0.289328
thorax -4.14636 1.16786 -5.80971
lowerneck 3.40695 -6.34775 -28.2855
upperneck 7.95877 -12.1848 36.0159
head 6.09409 -6.27594 17.9174
rclavicle 4.44781e-014 2.38542e-015
rhumerus -23.7329 17.8449 -76.7854
rradius 65.4438
rwrist -16.2412
rhand -11.0965 -31.128
rfingers 7.12502
rthumb 14.9275 -60.5701
lclavicle 4.44781e-014 2.38542e-015
lhumerus -33.998 -15.3173 76.6862
lradius 74.7209
lwrist 61.0499
lhand -20.8256 14.8614
lfingers 7.12502
lthumb 5.5427 44.769
rfemur -18.3742 -10.15 28.5353
rtibia 26.998
rfoot -21.3165 0.68096
rtoes -22.2033
lfemur -35.2805 14.7891 -23.8361
ltibia 42.2561
lfoot -17.6209 13.7509
ltoes -6.93764
